<svg xmlns="http://www.w3.org/2000/svg" width="865.13453" height="1019.83456" viewBox="0 0 865.13453 1019.83456">
  <defs>
    <style>
      .a, .b {
        fill: none;
        stroke-width: 2px;
      }

      .a {
        stroke: #000;
      }

      .b {
        stroke: #fff;
      }
    </style>
  </defs>
  <path class="a" d="M580.85544,399.55991H509.73251l-19.55881-16.8917s-4.44518-13.33555,4.44519-16.8917l8.89036-3.55614s-18.22525-37.33954-14.44684-40.89569,6.44551-13.33555,6.44551-13.33555,2.66711-11.55748,1.77808-14.22459S511.51058,281.318,511.51058,281.318s-15.11362-10.66844-3.55614-14.22459,26.82222-.889,26.74666,7.11229-16.07822-32.00532-4.52075-40.00665,14.22459-13.33555,18.66977-13.33555-6.22325-64.01064,21.33688-64.01064,37.33955,19.55881,32.89436,32.89436,86.23656-21.33688,208.92362,7.11229c0,0,26.6711-37.33954,151.13624,1.77808s127.13225,66.67775,172.47312,59.56545,59.56546,32.89436,22.22591,174.25119-42.67376,264.93294-40.89568,280.9356,4.44518,54.23124-5.33422,51.56413,16.00266,37.33954,22.22591,40.89568,41.78473,14.22459,50.6751,16.8917,22.22591,15.11362,23.115,21.33688-26.6711-6.22326-27.56014,0-43.5628-26.6711-52.45316-18.66977-46.22991-22.22592-43.5628-38.22858-22.22592,7.1123-22.22592,7.1123-20.44784-46.22991.889-81.79138,24.893-164.47179,24.893-164.47179,8.00133-110.24055-58.67643-178.69637c0,0-24.893,7.11229-33.78339,23.115s-56.89835,12.44652-56.89835,12.44652-47.11894,17.78073-50.67509,24.893-21.33688-11.55747-52.45316-2.66711-128.91032,30.22725-128.91032,30.22725S620.8621,404.89413,580.85544,399.55991Z" transform="translate(-454.82598 -21.36719)"/>
  <path class="a" d="M1124.70665,603.53229s56.4829,163.369,56.4829,176.66364V821.7432" transform="translate(-454.82598 -21.36719)"/>
  <path class="a" d="M1207.62631,844.07825l24.39586,1.7965s50.05058-4.67967,59.43506,7.05093,12.51264-19.796,26.58937-4.42371c0,0,16.89786-27.68176-94.62688-26.75877,0,0,17.98693-27.47054-19.551-95.50805s-63.00681-220.77425-63.00681-220.77425" transform="translate(-454.82598 -21.36719)"/>
  <path class="b" d="M658.35168,471.32035" transform="translate(-454.82598 -21.36719)"/>
  <path class="a" d="M1116.68189,708.273s26.96972-3.153,18.36728,23.43642c0,0,39.03079-11.92856-16.06744-73.61077" transform="translate(-454.82598 -21.36719)"/>
  <path class="a" d="M1786.48874,555.75037" transform="translate(-454.82598 -21.36719)"/>
  <circle class="a" cx="106.20561" cy="304.07231" r="12.12162"/>
  <circle class="a" cx="209.63044" cy="611.21864" r="13.4902"/>
  <path class="a" d="M636.10746,575.30137s-21.11509-62.56322,8.60244-60.2171,37.53793,57.871,47.70446,68.81955,46.92242,31.28161,48.4865,62.1722" transform="translate(-454.82598 -21.36719)"/>
  <path class="a" d="M637.67154,619.09563s-31.75394-20.33305-8.83861-24.24325,25.26145-3.12816,26.04349-10.16652-.782,7.03836-.782,7.03836,27.51824,10.40834,36.7559,4.69224S723.696,626.916,723.696,626.916" transform="translate(-454.82598 -21.36719)"/>
  <path class="a" d="M691.74211,604.81557s-5.09,13.039-2.18144,18.12905,9.81646-6.5443,9.81646-6.5443" transform="translate(-454.82598 -21.36719)"/>
  <path class="a" d="M637.90162,501.36382s-44.79187-68.82308-33.17916,22.41961,9.95375,61.93443,9.95375,61.93443" transform="translate(-454.82598 -21.36719)"/>
  <path class="a" d="M548.91,274.47366s4.3516-31.71746,12.12163-33.832-5.97421-14.27286,9.3559-15.85873c0,0,6.67637-51.27657,32.41252-16.38736,0,0,7.76293,32.24609,2.47669,52.33382s19.5591,56.03418,19.5591,56.03418" transform="translate(-454.82598 -21.36719)"/>
  <path class="a" d="M511.51058,281.318s-8.787,48.13256-5.61527,51.83293,19.55911,12.687,30.13159-12.687,39.11821-10.927,39.11821-10.927" transform="translate(-454.82598 -21.36719)"/>
  <path class="a" d="M602.8,346.36657s-26.279-3.70037-41.76842,15.33011,45.30236,8.458,45.30236,8.458" transform="translate(-454.82598 -21.36719)"/>
  <path class="a" d="M542.3704,359.5799s-14.237,16.751-51.523,9.16956" transform="translate(-454.82598 -21.36719)"/>
  <path class="a" d="M955.3804,346.07647s24.98121-23.49887,73.54953,23.25619" transform="translate(-454.82598 -21.36719)"/>
  <path class="a" d="M1148.46247,365.14943a636.7964,636.7964,0,0,0-39.304,96.16713" transform="translate(-454.82598 -21.36719)"/>
  <path class="a" d="M1100.11268,717.31178s4.52288-145.42134,19.90069-183.97361" transform="translate(-454.82598 -21.36719)"/>
  <path class="a" d="M769.03758,731.70943S803.4115,842.8329,803.4115,855.6045" transform="translate(-454.82598 -21.36719)"/>
  <path class="a" d="M1140.86191,590.20184s55.13591,159.67471,58.75421,221.18593" transform="translate(-454.82598 -21.36719)"/>
  <path class="a" d="M658.35168,784.25046s9.0113,65.12953,19.59493,86.83937" transform="translate(-454.82598 -21.36719)"/>
  <path class="a" d="M688.663,951.59717s17.95882-35.2785,20.67255-58.79749" transform="translate(-454.82598 -21.36719)"/>
  <path class="a" d="M769.03758,850.28457s9.04577,14.47323,23.519,12.66407" transform="translate(-454.82598 -21.36719)"/>
  <path class="a" d="M1290.97838,838.52507s1.98546,5.93529,9.95034,0" transform="translate(-454.82598 -21.36719)"/>
  <path class="a" d="M575.14511,240.59982S587.1912,268.3686,597.168,274.97374" transform="translate(-454.82598 -21.36719)"/>
  <path class="a" d="M586.87288,216.17625s.34477,21.86056,10.29511,24.42357" transform="translate(-454.82598 -21.36719)"/>
  <path class="a" d="M575.14511,555.75037,613.45037,626.916s-.74814,31.59826,11.38543,35.21657c0,0,6.89059,1.64758,18.46561-37.89958l15.05027-1.616" transform="translate(-454.82598 -21.36719)"/>
  <path class="a" d="M688.663,671.75368s29.1121,7.53118,46.13728-9.61133" transform="translate(-454.82598 -21.36719)"/>
  <path class="a" d="M637.90162,498.74973a59.62358,59.62358,0,0,0,3.41349-37.43317" transform="translate(-454.82598 -21.36719)"/>
  <path class="a" d="M747.20884,567.63438c0,2.37893,19.03146,30.7381,17.24726,46.88992" transform="translate(-454.82598 -21.36719)"/>
  <path class="a" d="M769.03758,555.75037s7.90793,39.19776,4.93426,53.196" transform="translate(-454.82598 -21.36719)"/>
  <path class="a" d="M796.57171,594.99211s14.86833,10.90315,3.5684,29.24091" transform="translate(-454.82598 -21.36719)"/>
  <path class="a" d="M800.47538,574.77118s9.18046,9.42172,9.18046,16.30816" transform="translate(-454.82598 -21.36719)"/>
  <path class="a" d="M822.14524,582.92526s23.1946,11.57109,14.2736,26.68731" transform="translate(-454.82598 -21.36719)"/>
  <path class="a" d="M850.51825,580.548s15.63726,13.28832,3.74259,38.54767" transform="translate(-454.82598 -21.36719)"/>
  <path class="a" d="M878.64491,567.63438s26.763,4.30676,19.03146,32.18741" transform="translate(-454.82598 -21.36719)"/>
  <path class="a" d="M888.86172,549.19764s29.03559-5.3526,28.44085,25.57354" transform="translate(-454.82598 -21.36719)"/>
  <path class="a" d="M899.07853,517.67678s51.52911,7.97234,52.12384,44.13067" transform="translate(-454.82598 -21.36719)"/>
  <path class="a" d="M966.66544,527.19251s36.27873,6.42895,41.63133,21.65121" transform="translate(-454.82598 -21.36719)"/>
  <path class="a" d="M966.66544,512.91891s20.81567,24.38407,32.71033-2.97367" transform="translate(-454.82598 -21.36719)"/>
  <path class="a" d="M1008.29677,522.92614s-7.73153-19.03147,17.24727-6.49045" transform="translate(-454.82598 -21.36719)"/>
  <path class="a" d="M1021.97564,490.319s8.921,8.921,21.4104-7.1368" transform="translate(-454.82598 -21.36719)"/>
  <path class="a" d="M637.90162,274.97374s11.77095-28.49537,8.20255,22.6517" transform="translate(-454.82598 -21.36719)"/>
  <path class="a" d="M620.52438,240.59982s13.29876,33.05718,30.44184,15.89947" transform="translate(-454.82598 -21.36719)"/>
  <path class="a" d="M682.3829,285.73077s17.327,2.97367,11.63715,35.08927" transform="translate(-454.82598 -21.36719)"/>
  <path class="a" d="M747.20884,257.78678h8.68265s33.09659,52.88331,18.749,88.28969" transform="translate(-454.82598 -21.36719)"/>
  <path class="a" d="M822.14524,257.78678s12.49758-8.80449,36.58019,9.27238" transform="translate(-454.82598 -21.36719)"/>
  <path class="a" d="M848.09706,301.93162s22.81631-14.20324,36.49518,14.832" transform="translate(-454.82598 -21.36719)"/>
  <path class="a" d="M914.32891,213.17331" transform="translate(-454.82598 -21.36719)"/>
  <path class="a" d="M1158.16958,301.93162s.26224,6.1222-5.22148,23.50788" transform="translate(-454.82598 -21.36719)"/>
  <path class="a" d="M672.08131,734.64146s-17.96326,17.90313-47.24551-4.572c0,0-.21585-44.43059,24.56634-51.20658" transform="translate(-454.82598 -21.36719)"/>
  <path class="a" d="M1077.98431,658.32426c1.08853-6.48429-7.06245-13.4213-7.06245-13.4213s-17.20488-.782-20.333,20.333,12.12451,47.26481,12.12451,47.26481-41.84205-58.99542-124.73832-23.8036-159.53622,21.89712-159.53622,21.89712c0,23.46121,30.49957,113.39585,39.88406,115.742s16.42284,64.90934-5.47429,50.83262-31.28161,8.60244-46.92241,1.56408-41.44814,11.7306-41.44814,11.7306l-7.03836-21.11508s7.8204-7.82041,17.20488-7.82041,27.37142-19.551,27.37142-19.551L748.72126,702.77394s-37.53793-3.9102-76.63995,32.84569l62.56322,185.34356s-22.67916.782-25.02528,10.16652,7.03836,24.24325-31.28162,45.35834l-23.46121,50.83262s-20.333-9.38449-25.80733,11.7306c0,0-10.94856-13.29468,12.51265-35.19181s31.28161-58.653,31.28161-58.653,4.69224-25.80732,14.07673-30.49957c0,0-50.83262-78.204-51.61466-152.49786,0-.00082,4.40285-27.08877,3.86863-24.16668-.055.301-.01428.01253.10319-.74766-7.526-2.09408-11.88188-5.18258-14.00523-8.81059-.45628-29.85963,10.898-45.16242,23.37827-49.40757.08552-.52107.16442-1.00164.23621-1.4389.317-1.93077.49565-3.01711.49565-3.01711s-34.40977-3.12816-41.44813,6.25632S537.57038,546.36588,553.21119,476.7643c0,0-1.56409-24.24325,39.102-27.37142s66.47343-5.47428,66.47343-5.47428l-.782,49.26854s22.99954-33.14674,41.2173-40.03458" transform="translate(-454.82598 -21.36719)"/>
  <path class="a" d="M635.04868,737.29466" transform="translate(-454.82598 -21.36719)"/>
  <line class="a" x1="214.74831" y1="715.92748" x2="240.34116" y2="695.9446"/>
  <g>
    <path d="M527.81885,107.86084l2.24316,5.479-6.65576,4.353-3.12256-15.937,7.11035-2.91065,5.44776,14.63624a60.40713,60.40713,0,0,1-21.58789,14.42041c-23.54541,9.63818-45.35254,1.582-53.67286-18.74122-8.15771-19.9248,2.27637-41.644,25.00586-50.94824,6.29444-2.57666,14.937-5.06787,24.45411-4.42676L513.42139,68.04,506.311,70.95068l-8.95069-13.55127,7.79785-1.564,2.48828,6.07715c-8.80566-2.56006-16.02636-1.582-21.62158.70849-15.73584,6.44141-24.15869,22.10254-16.20508,41.52979,7.95362,19.42676,23.65918,25.21142,39.86133,18.5791A38.738,38.738,0,0,0,527.81885,107.86084Z" transform="translate(-454.82598 -21.36719)"/>
    <path d="M578.853,98.73926l-4.457-24.13721c-1.91553-10.375-5.853-12.27539-14.02832-10.76562a33.71281,33.71281,0,0,0-10.79639,3.96435l4.34863-4.19678-1.53955,9.69873c-.54785,3.27637-2.09326,5.313-5.438,5.93067-3.34424.61767-5.61963-.60449-6.356-3.20557.86816-8.48,9.11572-15.14844,21.50293-17.43554,12.75878-2.356,19.87109,1.47607,22.334,14.81494l4.14355,22.44336c.87989,4.76416,2.92676,6.13769,5.77588,5.61181a6.5387,6.5387,0,0,0,4.40088-3.22119l2.90723,1.87158a12.21878,12.21878,0,0,1-9.53223,7.34326C585.30566,108.71436,580.06445,105.30273,578.853,98.73926Zm-17.56836-15.3667a156.33474,156.33474,0,0,1,18.3789-7.9917l.70411,3.811a129.12866,129.12866,0,0,0-15.8169,7.29981c-10.46435,5.76367-10.96045,10.01562-10.39355,13.08545,1.03613,5.61084,5.78222,7.03369,11.48,5.98144,4.33545-.80078,6.55908-2.63427,13.48291-8.83935l2.18457-2.04541,2.14453,1.90283-3.02539,3.7334c-6.25928,7.72461-9.92383,11.46631-17.48,12.86182-9.04248,1.66943-17.41944-1.38135-19.042-10.16846C542.80713,97.0752,545.644,91.625,561.28467,83.37256Z" transform="translate(-454.82598 -21.36719)"/>
    <path d="M621.53906,23.50732l1.82862.71192.76757,15.27637,3.39795,40.76806q.939,11.26465,2.2544,22.498l-10.79444.90039q-.5625-11.29614-1.50146-22.561L613.55762,33.896l-10.50782-.20411-.313-3.75488Zm17.97705,74.66211.313,3.75489-30.87744,2.57519-.313-3.75488,14.0044-3.32861,2.51074-.20948Z" transform="translate(-454.82598 -21.36719)"/>
    <path d="M666.57715,21.36719l1.7832.81933-.13965,15.29395.97412,40.89551q.2688,11.30054.916,22.59131l-10.82861.25732q.10839-11.30933-.16065-22.60938l-1.12793-47.353-10.47656-.82764-.08984-3.7666Zm13.51709,75.59424.08984,3.7666-30.9751.73584-.08984-3.7666,14.17725-2.49073,2.51806-.05957Z" transform="translate(-454.82598 -21.36719)"/>
    <path d="M720.06934,97.78662l-.09815,3.7666-28.96045-.75439.09815-3.7666,13.90673-1.79151,2.51856.06543Zm-19.48926,3.26172c.37842-4.83643.79346-15.918.96728-22.59033l.13233-5.05811c.15429-5.91943.11523-9.25879-.02442-13.57031l-10.2998-1.2373.09863-3.76709,19.18164-5.96143,1.86035,1.125-.75683,14.519-.37012,14.20606c-.17432,6.67236-.3374,17.76025-.21191,22.60986ZM699.294,29.61377c.10644-4.08936,3.82812-6.68457,8.4873-6.56348,4.65869.12159,8.24023,2.90723,8.1333,6.99659-.104,3.98193-3.82861,6.685-8.4873,6.56347C702.76855,36.48926,699.18994,33.5957,699.294,29.61377Z" transform="translate(-454.82598 -21.36719)"/>
    <path d="M745.13672,76.52783c-1.08057,13.52149,6.74023,21.59766,18.54346,22.54,7.28271.58154,13.92675-1.91211,18.248-6.9668l2.91065,1.52832c-4.10205,8.63623-12.53272,12.93116-24.33594,11.98877-17.20215-1.373-27.17773-12.53759-25.86572-28.957C735.98389,59.813,750.60205,50.82812,765.544,52.021c11.17529.89209,19.9956,7.53662,20.99316,15.60791-.8418,2.63281-2.82861,3.7705-5.96729,3.51953-4.144-.33057-5.60449-2.60742-6.269-5.36035L771.916,56.09375l5.459,4.43164a29.80057,29.80057,0,0,0-11.83984-3.645C754.61084,56.0083,746.23438,62.7915,745.13672,76.52783Z" transform="translate(-454.82598 -21.36719)"/>
    <path d="M825.14111,107.47363l-.46728,3.73877-28.74658-3.59375.46728-3.73877,14.01514-.418,2.5.3125Zm-19.71484,1.33252c.85059-4.77588,2.35059-15.76367,3.17871-22.38672l.62744-5.021c.73438-5.87549,1.02295-9.20264,1.30713-13.50684l-10.12842-2.24267.46729-3.73926,19.67383-4.04981,1.74121,1.30225-2.17725,14.375-1.76269,14.10107c-.82764,6.623-2.07813,17.64209-2.42872,22.48047Zm5.727-71.21679c.50732-4.05957,4.46582-6.27686,9.09033-5.69874s7.915,3.70167,7.40772,7.76124c-.49414,3.95263-4.46582,6.27685-9.08985,5.69873C813.937,44.77246,810.65918,41.542,811.15332,37.58936Z" transform="translate(-454.82598 -21.36719)"/>
    <path d="M841.86035,88.0957c2.75586-17.65722,18.24658-24.61035,32.5586-22.37646,14.063,2.19482,26.94677,13.57666,24.19091,31.23388s-18.42871,24.14551-32.4917,21.95069C851.80615,116.66992,839.10449,105.75293,841.86035,88.0957Zm45.54883,7.10938c2.22461-14.25342-2.91016-23.00928-13.7373-24.69922-11.07618-1.72852-18.38624,5.08447-20.61084,19.33789s2.728,22.54492,13.80419,24.27344C877.69238,115.80713,885.18457,109.4585,887.40918,95.20508Z" transform="translate(-454.82598 -21.36719)"/>
    <path d="M927.85889,108.0835c-1.59424,9.44775,1.07959,13.28369,7.91113,14.437,6.33447,1.06933,13.24121-.49463,20.34717-4.75391l2.6084.44043-.91358,5.41358-6.335-1.06934,4.61621-.8584c-8.459,6.979-17.47851,8.9502-25.55176,7.5874-9.93652-1.67724-15.28711-7.8208-12.79834-21.8125l5.102-27.96191,2.26807,2.457-11.19336-4.07275.627-3.71534,18.11865,1.63868,1.063,1.27148L930.59961,91.8418ZM954.106,132.71191l.35693-12.71337,6.14063-34.11915,2.26855,2.457-11.19336-4.07276.62695-3.71533,17.87012,1.59717,1.06348,1.271L968.3584,98.21533,963.002,129.95605l-2.55078-3.05126,11.19336,4.07324-.627,3.71533Z" transform="translate(-454.82598 -21.36719)"/>
    <path d="M986.0625,134.69189l1.67188-11.62548,6.56054,1.23242.99707,13.11279-5.6084-3.57275.67579-3.59766a26.66978,26.66978,0,0,0,14.41113,7.19824c9.53222,1.79053,14.60547-.65185,15.51953-5.519.85547-4.5498-2.4209-7.57471-9.7627-11.47363l-5.35644-2.86817c-8.501-4.5542-13.667-9.79687-12.31543-16.9917,1.43164-7.61767,10.31543-13.28808,24.05664-10.707a36.14774,36.14774,0,0,1,16.39258,7.57032l-2.50391,10.59326-6.18945-1.1626-.46778-11.15137,4.13868,2.52979-.51758,2.751a22.80341,22.80341,0,0,0-11.8711-6.39257c-7.67578-1.44141-12.17382.67089-13.00878,5.11474-.89454,4.76123,1.8623,7.14112,9.7832,11.36768l3.49512,1.86133c11.64355,6.24023,15.41406,12.09668,14.18066,18.65673-1.4707,7.82959-10.87012,13.5127-26.71582,10.53614A43.60949,43.60949,0,0,1,986.0625,134.69189Z" transform="translate(-454.82598 -21.36719)"/>
    <path d="M1050.7334,101.187l-1.752-3.333c7.86914-3.20312,11.73242-5.69921,16.30468-12.22656l.19825,3.99951-4.52833-5.44873c-3.13085-3.50927-3.7373-6.16406-3.18945-8.79931.876-4.21631,3.9834-5.54981,8.29981-4.65332a10.34421,10.34421,0,0,1,6.2207,3.4917,18.59894,18.59894,0,0,1,.07031,7.71142C1070.45312,91.09912,1060.93164,97.918,1050.7334,101.187Z" transform="translate(-454.82598 -21.36719)"/>
    <path d="M1122.294,160.53125l-1.665,5.68164-16.92188-4.96045,1.21094-4.13183,16.167,3.05615Zm3.79394-33.10156c3.11816-10.64014,6.2666-21.3833,9.02246-32.12989l11.60254,3.40137c-3.41992,10.32715-6.56836,21.0708-9.74707,31.91748l-1.05957,3.61573c-3.57227,12.18945-6.7207,22.93261-9.47656,33.67919l-11.60254-3.40136c3.41992-10.32715,6.56836-21.0708,9.74707-31.91748Zm5.71191.665,11.96485,3.50732c14.86719,4.35791,22.45312,2.207,25.23828-7.29639,2.78516-9.5039-2.65137-14.6875-15.10059-18.33691l-14.38281-4.21631,1.39258-4.752,17.88769,5.24365c16.5586,4.85449,24.16895,14.71338,21.2627,24.63037-2.36133,8.05762-10.97656,13.272-27.53613,10.2124l.27246-.92968c18.46094,6.87011,24.07715,16.36914,21.47363,25.25293-2.75488,9.40039-14.60449,16.24707-37.44824,9.55029l-16.19531-4.74756,1.39257-4.75195,13.29493,3.89746c15.71191,4.606,24.81054,1.77637,27.47461-7.314,2.81543-9.60742-3.13477-16.62353-20.05567-21.584l-12.32812-3.61426Zm-9.0205-31.92237,1.21093-4.13232,16.92188,4.96045-1.665,5.68164-1.209-.354Z" transform="translate(-454.82598 -21.36719)"/>
    <path d="M1211.74805,169.36279a156.31926,156.31926,0,0,1,19.26172,5.53467l-1.88379,3.38721a129.09821,129.09821,0,0,0-16.84571-4.4375c-11.73925-2.21533-14.82812.74756-16.3457,3.47607-2.77344,4.98682-.01855,9.10449,5.0459,11.91992,3.85254,2.14209,6.73535,2.14307,16.02539,1.76514l2.98633-.1875.44238,2.833-4.71.95361c-9.74414,1.97266-14.95313,2.52637-21.668-1.207-8.03711-4.46777-12.55469-12.15283-8.21191-19.96191C1188.77441,168.16943,1194.43164,165.772,1211.74805,169.36279Zm3.76562,23.03272,11.92969-21.45117c5.127-9.22071,3.30078-13.19239-3.96582-17.23145a33.71455,33.71455,0,0,0-10.84961-3.81494l6.02539-.46875-7.3623,6.50049c-2.50782,2.17724-4.9961,2.76465-7.96875,1.1123s-3.94922-4.043-2.86133-6.51758c6.06836-5.98779,16.67383-5.88086,27.68359.23975,11.33887,6.30371,14.38477,13.78613,7.792,25.64063l-11.09277,19.94628c-2.35449,4.23389-1.65039,6.5962.88184,8.00391a6.5394,6.5394,0,0,0,5.44531.3169l1.05078,3.29394a12.21977,12.21977,0,0,1-12.02637-.40381C1214.13965,204.1958,1212.26953,198.229,1215.51367,192.39551Z" transform="translate(-454.82598 -21.36719)"/>
    <path d="M1245.332,232.83594c1.40527,2.38818,3.51758,4.06787,6.94141,5.853l-1.03614,3.97071c-4.5664-.9668-8.94824-4.37988-12.1416-9.80762-4.40722-7.48975-3.81347-14.123,3.33106-18.32666,2.22656-1.31055,4.23926-2.34863,7.8584-4.47754l22.083-12.99414-5.36523-9.11816,3.99023-2.34766,9.40528,12.58691-5.61719-2.54052,16.94727-5.58789,3.70507,6.2959-16.749,8.686-30.06348,17.689C1243.7959,225.55615,1243.16016,229.14551,1245.332,232.83594Zm45.78613-14.957-4.82519,2.83886L1274.92383,201.396l4.82422-2.83936Z" transform="translate(-454.82598 -21.36719)"/>
    <path d="M1273.18066,257.16211c-13.55273-.58789-21.34082,7.521-21.85351,19.34961-.31738,7.29883,2.416,13.84766,7.624,17.98193l-1.4209,2.96387c-8.78027-3.78516-13.3789-12.05371-12.86523-23.88232.749-17.24024,11.54394-27.61377,28.001-26.89942,16.88671.73291,26.39648,15.01416,25.74609,29.98877-.48633,11.19971-6.80664,20.25537-14.83691,21.54541-2.66114-.7456-3.87012-2.68945-3.7334-5.83545.17968-4.15283,2.40234-5.69531,5.12988-6.45947l9.60156-2.73486-4.23144,5.61572a29.79671,29.79671,0,0,0,3.21386-11.96387C1294.03125,265.88428,1286.94824,257.75977,1273.18066,257.16211Z" transform="translate(-454.82598 -21.36719)"/>
    <path d="M1266.82715,313.08252c17.59668,3.11523,24.23144,18.74414,21.707,33.00684-2.48145,14.01464-14.12305,26.66308-31.71973,23.54785-17.5957-3.11573-23.76367-18.91748-21.28222-32.93213C1238.05762,322.44238,1249.23047,309.9668,1266.82715,313.08252ZM1258.791,358.4751c14.2041,2.51465,23.0625-2.44043,24.97265-13.23047,1.9541-11.03809-4.708-18.48535-18.91211-21-14.20508-2.51514-22.59472,2.26709-24.54883,13.30517C1238.39258,348.33984,1244.58691,355.96,1258.791,358.4751Z" transform="translate(-454.82598 -21.36719)"/>
    <path d="M1232.80078,381.06885l-.04,14.021-.39453,2.48828-4.293,13.34766-3.72265-.58887L1229.0791,380.48Zm17.13184,12.27588,4.998.791c5.84864.9253,9.16407,1.32276,13.457,1.74707l2.5332-9.80078,3.72168.58887,3.70117,17.9292-1.3584,1.69775-13.5293-.61084-15.0996-2.39013c-6.59278-1.04346-17.56543-2.65235-22.39063-3.16114l1.69434-10.69873C1232.40625,390.44336,1243.33984,392.30127,1249.93262,393.34473Zm13.56738,7.248-1.123,7.09131-.252-3.228c9.25977,5.5459,14.0127,14.07715,12.85059,21.417-.57129,3.60791-2.65137,7.10449-5.01465,8.26074-4.99707-.791-7.40723-3.46777-6.62012-8.44434a12.60529,12.60529,0,0,1,3.73438-7.06006l2.97753-2.97168.09864,6.26417c-2.18164-8.252-6.78907-13.57227-14.52442-17.7295l.748-4.72705Z" transform="translate(-454.82598 -21.36719)"/>
    <path d="M1218.34375,502.94727l-3.75488-.30762.5-19.29492,11.04785-.35889,31.43848,2.5752,1.36425.49121,27.04,2.21484,1.957-10.7085,3.75586.30762,3.25489,19.60254-1.00293,1.687-15.19532-1.75-63.30664-5.18555,5.63672-1.56054Zm3.61035-34.83692c-.52441,6.40186,1.47656,10.98926,7.334,17.28223l-2.98926.89258c-6.90625-5.36817-10.82227-11.62842-10.01953-21.42041,1.25488-15.315,12.93554-24.7212,28.49316-23.44678,16.30957,1.33594,26.3291,13.53076,25.06445,28.97119-.58691,7.15576-3.55859,13.10449-12.46289,18.94678l-2.68652-1.48389c6.60547-6.78857,8.7334-11.66943,9.124-16.43994.77149-9.415-4.998-18.102-19.69824-19.30615C1229.84277,450.937,1222.78711,457.94189,1221.9541,468.11035Z" transform="translate(-454.82598 -21.36719)"/>
    <path d="M1251.24707,571.502a18.74811,18.74811,0,0,1-6.085-.30175l-4.4375-46.26563,4.501-.43213,2.86132,29.84131c.57715,6.01758,3.17481,7.16016,6.17481,6.87305,6.1084-.58692,11.10351-7.13965,10.34668-15.03907-.76953-8.02392-7.44629-16.74707-22.77051-15.27636-13.60937,1.30615-20.127,10.03027-18.9248,22.56836.76953,8.02441,4.35839,12.74121,9.292,16.82324l-1.65235,3.06836c-8.042-3.78321-13.63378-11.34473-14.72753-22.75488-1.61133-16.80079,7.30859-28.66553,23.59765-30.229,16.39551-1.57324,28.57715,10.41748,30.06738,25.96436C1270.72852,559.25684,1264.21387,570.25781,1251.24707,571.502Z" transform="translate(-454.82598 -21.36719)"/>
    <path d="M1230.63965,600.64648l6.96582,12.16895.90039,2.35254,2.94434,13.709-3.51954,1.34766-10.81054-28.23145Zm20.97265,2.085,4.72559-1.80957c5.5293-2.11719,8.60156-3.42872,12.53223-5.20313l-2.69824-9.75781,3.51855-1.34668,12.15918,13.6875-.33008,2.14941-12.02734,6.22363-14.27637,5.4668c-6.2334,2.38672-16.54394,6.46973-20.97852,8.4375l-3.874-10.11621C1234.97852,608.96582,1245.37891,605.11816,1251.6123,602.73145Zm15.375-.49219,2.56739,6.70508-1.83008-2.6709c10.792.18359,19.16992,5.20312,21.82715,12.14355,1.30664,3.41113,1.25,7.47852-.22071,9.66016-4.7246,1.80957-8.14941.69336-9.95117-4.01172a12.60446,12.60446,0,0,1-.29-7.98242l1.09571-4.06153,3.21289,5.37891c-6.00977-6.06055-12.65821-8.37109-21.43653-8.11133l-1.71093-4.4707Z" transform="translate(-454.82598 -21.36719)"/>
  </g>
</svg>
